<svg xmlns="http://www.w3.org/2000/svg" viewBox="0 0 800 600" fill="none">
  <defs>
    <linearGradient id="cardBg" x1="0%" y1="0%" x2="0%" y2="100%">
      <stop offset="0%" stop-color="#f8fafc"/>
      <stop offset="100%" stop-color="#e2e8f0"/>
    </linearGradient>
    <linearGradient id="accent" x1="0%" y1="0%" x2="100%" y2="0%">
      <stop offset="0%" stop-color="#6366f1"/>
      <stop offset="100%" stop-color="#8b5cf6"/>
    </linearGradient>
    <filter id="shadow">
      <feDropShadow dx="0" dy="2" stdDeviation="4" flood-opacity="0.08"/>
    </filter>
  </defs>
  <g transform="translate(20, 40)">
    <!-- Top-Left: Flow channel structure -->
    <g filter="url(#shadow)">
      <rect x="0" y="0" width="380" height="240" rx="12" fill="url(#cardBg)" stroke="#cbd5e1" stroke-width="1"/>
      <text x="16" y="28" font-family="sans-serif" font-size="14" font-weight="600" fill="#475569">&#27969;&#36947;&#32467;&#26500;</text>
      <path d="M60 100 L120 100 L160 140 L200 100 L260 100" stroke="#6366f1" stroke-width="2" fill="none" stroke-linecap="round"/>
      <circle cx="80" cy="100" r="4" fill="#6366f1"/>
      <text x="70" y="90" font-size="10" fill="#64748b">a</text>
      <circle cx="180" cy="110" r="4" fill="#8b5cf6"/>
      <text x="170" y="100" font-size="10" fill="#64748b">b</text>
      <circle cx="250" cy="100" r="4" fill="#a78bfa"/>
      <text x="240" y="90" font-size="10" fill="#64748b">c</text>
      <text x="55" y="125" font-size="9" fill="#64748b">&#27668;&#28082;&#28151;&#21512;&#21306;</text>
      <text x="165" y="155" font-size="9" fill="#64748b">&#27668;&#30456;&#20999;&#21098;&#21306;</text>
      <text x="235" y="125" font-size="9" fill="#64748b">&#27668;&#27874;&#37322;&#25918;</text>
      <g transform="translate(16, 170)">
        <rect x="0" y="0" width="100" height="56" rx="8" fill="white" stroke="#e2e8f0"/>
        <text x="50" y="30" text-anchor="middle" font-size="11" fill="#475569">3 &#36827;&#27700;&#21475;</text>
      </g>
      <g transform="translate(130, 170)">
        <rect x="0" y="0" width="100" height="56" rx="8" fill="white" stroke="#e2e8f0"/>
        <text x="50" y="30" text-anchor="middle" font-size="11" fill="#475569">25&#176; &#38181;&#35282;</text>
      </g>
      <g transform="translate(244, 170)">
        <rect x="0" y="0" width="100" height="56" rx="8" fill="white" stroke="#e2e8f0"/>
        <text x="50" y="30" text-anchor="middle" font-size="11" fill="#475569">233 &#23556;&#27969;&#21475;</text>
      </g>
    </g>
    <!-- Top-Right: Bubble generation mechanism -->
    <g transform="translate(400, 0)" filter="url(#shadow)">
      <rect x="0" y="0" width="380" height="240" rx="12" fill="url(#cardBg)" stroke="#cbd5e1" stroke-width="1"/>
      <text x="16" y="28" font-family="sans-serif" font-size="14" font-weight="600" fill="#475569">&#27668;&#27874;&#29983;&#25104;&#26426;&#29702;</text>
      <circle cx="80" cy="100" r="36" fill="white" stroke="url(#accent)" stroke-width="1.5"/>
      <text x="80" y="105" text-anchor="middle" font-size="9" fill="#64748b">&#20999;&#21521;&#36895;&#24230;</text>
      <circle cx="200" cy="100" r="36" fill="white" stroke="url(#accent)" stroke-width="1.5"/>
      <text x="200" y="105" text-anchor="middle" font-size="9" fill="#64748b">&#28526;&#27969;&#32791;&#25955;</text>
      <circle cx="320" cy="100" r="36" fill="white" stroke="url(#accent)" stroke-width="1.5"/>
      <text x="320" y="105" text-anchor="middle" font-size="9" fill="#64748b">&#27668;&#27874;&#30772;&#30862;</text>
      <text x="200" y="175" text-anchor="middle" font-size="11" fill="#475569">&#39640;&#20999;&#21521;&#21098;&#20999;&#22686;&#24378;&#23616;&#37096;&#28526;&#27969;&#33021;&#37327;&#32791;&#25955;&#65292;&#20419;&#36827;&#27668;&#27874;&#30772;&#30862;</text>
    </g>
    <!-- Bottom-Left: Pressure and particle size -->
    <g transform="translate(0, 260)" filter="url(#shadow)">
      <rect x="0" y="0" width="380" height="240" rx="12" fill="url(#cardBg)" stroke="#cbd5e1" stroke-width="1"/>
      <text x="16" y="28" font-family="sans-serif" font-size="14" font-weight="600" fill="#475569">&#21387;&#21147;&#19982;&#31890;&#24452;&#28436;&#21270;</text>
      <g transform="translate(40, 60)">
        <text x="0" y="0" font-size="12" font-weight="600" fill="#475569">0.20 MPa</text>
        <circle cx="60" cy="40" r="12" fill="#93c5fd" opacity="0.8"/>
        <circle cx="100" cy="35" r="14" fill="#93c5fd" opacity="0.8"/>
        <text x="70" y="85" font-size="10" fill="#64748b">&#22823;&#27668;&#27874;</text>
      </g>
      <g transform="translate(160, 60)">
        <text x="0" y="0" font-size="12" font-weight="600" fill="#475569">0.30 MPa</text>
        <circle cx="60" cy="40" r="8" fill="#60a5fa" opacity="0.85"/>
        <circle cx="95" cy="38" r="9" fill="#60a5fa" opacity="0.85"/>
        <circle cx="75" cy="55" r="7" fill="#60a5fa" opacity="0.85"/>
        <text x="65" y="85" font-size="10" fill="#64748b">&#20013;&#27668;&#27874;</text>
      </g>
      <g transform="translate(280, 60)">
        <text x="0" y="0" font-size="12" font-weight="600" fill="#475569">0.50 MPa</text>
        <g fill="#3b82f6" opacity="0.9">
          <circle cx="45" cy="35" r="4"/>
          <circle cx="65" cy="30" r="5"/>
          <circle cx="85" cy="40" r="4"/>
          <circle cx="55" cy="50" r="4"/>
          <circle cx="75" cy="55" r="4"/>
        </g>
        <text x="55" y="85" font-size="10" fill="#64748b">&#23567;&#27668;&#27874;</text>
      </g>
      <path d="M50 200 L330 200" stroke="url(#accent)" stroke-width="3" stroke-linecap="round" opacity="0.6"/>
      <text x="190" y="230" text-anchor="middle" font-size="12" fill="#475569">&#21387;&#21147;&#22686;&#22823; &#8594; &#31890;&#24452;&#20943;&#23567;</text>
    </g>
    <!-- Bottom-Right: Conclusion -->
    <g transform="translate(400, 260)" filter="url(#shadow)">
      <rect x="0" y="0" width="380" height="240" rx="12" fill="url(#cardBg)" stroke="#cbd5e1" stroke-width="1"/>
      <text x="16" y="28" font-family="sans-serif" font-size="14" font-weight="600" fill="#475569">&#35843;&#25511;&#32467;&#35770;</text>
      <g transform="translate(30, 70)">
        <circle cx="0" cy="12" r="4" fill="url(#accent)"/>
        <text x="20" y="16" font-size="14" fill="#334155">&#27969;&#36947;&#32467;&#26500;&#20027;&#23548;&#35843;&#25511;</text>
      </g>
      <g transform="translate(30, 120)">
        <circle cx="0" cy="12" r="4" fill="url(#accent)"/>
        <text x="20" y="16" font-size="14" fill="#334155">&#25805;&#20316;&#21387;&#21147;&#36741;&#21161;&#35843;&#25511;</text>
      </g>
    </g>
  </g>
</svg>
